<?xml version="1.0" encoding="UTF-8"?>
<svg id="_レイヤー_1" xmlns="http://www.w3.org/2000/svg" version="1.1" viewBox="0 0 120 120">
  <!-- Generator: Adobe Illustrator 29.1.0, SVG Export Plug-In . SVG Version: 2.1.0 Build 142)  -->
  <defs>
    <style>
      .st0 {
        fill: #d84639;
      }

      .st1 {
        fill: #dbeff2;
      }

      .st2 {
        fill: #040000;
      }
    </style>
  </defs>
  <rect class="st1" x=".37" width="120" height="120"/>
  <g>
    <g>
      <polygon class="st2" points="17.77 51.15 17.77 22.54 46.38 22.54 46.38 30.59 25.83 30.59 25.83 51.15 17.77 51.15"/>
      <path class="st2" d="M45.89,23.02v7.08h-20.54v20.54h-7.08v-27.63h27.63M46.88,22.05h-29.59v29.59h9.04v-20.54h20.54v-9.04h0Z"/>
    </g>
    <g>
      <polygon class="st2" points="95.64 51.15 95.64 30.59 75.1 30.59 75.1 22.54 103.71 22.54 103.71 51.15 95.64 51.15"/>
      <path class="st2" d="M103.22,23.02v27.63h-7.08v-20.54h-20.54v-7.08h27.63M104.2,22.05h-29.59v9.04h20.54v20.54h9.04v-29.59h0Z"/>
    </g>
    <g>
      <polygon class="st2" points="17.77 101.28 17.77 72.67 25.83 72.67 25.83 93.23 46.38 93.23 46.38 101.28 17.77 101.28"/>
      <path class="st2" d="M25.34,73.17v20.54h20.54v7.08h-27.63v-27.63h7.08M26.32,72.18h-9.04v29.59h29.59v-9.04h-20.54v-20.54h0Z"/>
    </g>
    <g>
      <polygon class="st2" points="75.1 101.28 75.1 93.23 95.64 93.23 95.64 72.67 103.71 72.67 103.71 101.28 75.1 101.28"/>
      <path class="st2" d="M103.22,73.17v27.63h-27.63v-7.08h20.54v-20.54h7.08M104.2,72.18h-9.04v20.54h-20.54v9.04h29.59v-29.59h0Z"/>
    </g>
    <circle class="st0" cx="60.43" cy="61.7" r="12.33"/>
    <path class="st2" d="M60.25,12.18v24.04c0,.63.99.63.99,0V12.18c0-.63-.99-.63-.99,0h0Z"/>
    <path class="st2" d="M60.35,84.51v24.04c0,.63.99.63.99,0v-24.04c0-.63-.99-.63-.99,0h0Z"/>
    <path class="st2" d="M33.93,61.42H9.89c-.63,0-.63.99,0,.99h24.04c.63,0,.63-.99,0-.99h0Z"/>
    <path class="st2" d="M110.77,61.42h-24.04c-.63,0-.63.99,0,.99h24.04c.63,0,.63-.99,0-.99h0Z"/>
  </g>
</svg>