<?xml version="1.0" encoding="UTF-8"?>
<svg id="_レイヤー_1" data-name="レイヤー 1" xmlns="http://www.w3.org/2000/svg" viewBox="0 0 415.07 480.63">
  <defs>
    <style>
      .cls-1 {
        fill: #ccc;
      }

      .cls-1, .cls-2 {
        stroke-width: 0px;
      }

      .cls-2 {
        fill: #e26461;
      }
    </style>
  </defs>
  <g>
    <polygon class="cls-1" points="34.08 160.73 34.08 44.13 150.68 44.13 150.68 76.98 66.93 76.98 66.93 160.73 34.08 160.73"/>
    <path class="cls-1" d="m148.68,46.13v28.85h-83.75v83.75h-28.85V46.13h112.6m4-4H32.08v120.6h36.85v-83.75h83.75v-36.85h0Z"/>
  </g>
  <g>
    <polygon class="cls-1" points="351.49 160.73 351.49 76.98 267.74 76.98 267.74 44.13 384.34 44.13 384.34 160.73 351.49 160.73"/>
    <path class="cls-1" d="m382.34,46.13v112.6h-28.85v-83.75h-83.75v-28.85h112.6m4-4h-120.6v36.85h83.75v83.75h36.85V42.13h0Z"/>
  </g>
  <g>
    <polygon class="cls-1" points="34.08 365.08 34.08 248.48 66.93 248.48 66.93 332.23 150.68 332.23 150.68 365.08 34.08 365.08"/>
    <path class="cls-1" d="m64.93,250.48v83.75h83.75v28.85H36.08v-112.6h28.85m4-4h-36.85v120.6h120.6v-36.85h-83.75v-83.75h0Z"/>
  </g>
  <g>
    <polygon class="cls-1" points="266.24 366.58 266.24 330.73 349.99 330.73 349.99 246.98 385.84 246.98 385.84 366.58 266.24 366.58"/>
    <path class="cls-1" d="m385.34,247.48v118.6h-118.6v-34.85h83.75v-83.75h34.85m1-1h-36.85v83.75h-83.75v36.85h120.6v-120.6h0Z"/>
  </g>
  <circle class="cls-2" cx="207.96" cy="203.77" r="50.25"/>
  <path class="cls-1" d="m207.21,1.93v97.99c0,2.57,4,2.58,4,0V1.93c0-2.57-4-2.58-4,0h0Z"/>
  <path class="cls-1" d="m207.63,296.73v97.99c0,2.57,4,2.58,4,0v-97.99c0-2.57-4-2.58-4,0h0Z"/>
  <path class="cls-1" d="m99.92,202.61H1.93c-2.57,0-2.58,4,0,4h97.99c2.57,0,2.58-4,0-4h0Z"/>
  <path class="cls-1" d="m413.14,202.61h-97.99c-2.57,0-2.58,4,0,4h97.99c2.57,0,2.58-4,0-4h0Z"/>
  <g>
    <path class="cls-1" d="m67.13,468.7c0,6.01.07,8.31.52,11.13h-13.98c.45-2.81.58-5.37.58-10.93v-33.12c0-3.43-.09-5.47-.33-7.73-.09-.84.59-1.57,1.45-1.54,1.95.08,3.92.12,7.85.12h18.78c4.72,0,7.01-.04,9.38-.27.82-.08,1.54.56,1.54,1.38v9.07c0,.81-.71,1.45-1.53,1.38-2.34-.21-4.85-.29-9.33-.29h-13.54c-.78,0-1.41.62-1.41,1.38v7.72c0,.76.63,1.38,1.41,1.38h10.81c4.15,0,6.56-.09,8.86-.29.83-.07,1.54.56,1.54,1.38v8.77c0,.82-.71,1.45-1.54,1.38-2.34-.21-4.81-.29-8.86-.29h-10.81c-.78,0-1.41.62-1.41,1.38v8.02Z"/>
    <path class="cls-1" d="m163.43,452.85c0,16.5-7.92,27.4-24.01,27.4s-23.81-10.83-23.81-27.4,7.59-26.93,23.87-26.93,23.94,10.55,23.94,26.93Zm-11.03.08c0-10.13-4.9-16.25-12.91-16.25s-13.04,6.19-13.04,16.25,4.97,16.5,13.04,16.5,12.91-6.25,12.91-16.5Z"/>
    <path class="cls-1" d="m220.68,445.12c-.65.13-1.3-.27-1.48-.93-1.32-4.78-4.39-7.14-9.14-7.14-7.28,0-11.51,5.87-11.51,15.95s4.41,16.01,11.81,16.01c3.28,0,6.08-1.41,7.81-3.85.83-1.21,1.27-2.25,1.59-4.01.13-.69.77-1.15,1.45-1.05l9.76,1.49c.75.12,1.25.88,1.06,1.64-1.06,4.34-2.35,7.05-4.62,9.76-3.7,4.34-9.48,6.66-16.7,6.66s-13.42-2.32-17.65-6.72c-4.41-4.58-6.97-11.87-6.97-20.06s2.55-15.2,7.26-19.97c4.11-4.09,10.14-6.35,17.12-6.35,7.69,0,13.72,2.69,17.59,8,1.65,2.17,2.64,4.16,3.37,7,.19.74-.27,1.49-1,1.64l-9.76,1.94Z"/>
    <path class="cls-1" d="m297.7,427.92c.75,0,1.33.67,1.25,1.42-.21,2-.29,4.05-.29,7.49v20.32c0,13.47-7.96,21.09-21.96,21.09-7.2,0-13.07-2.07-16.56-5.79-3.37-3.66-5.11-8.8-5.11-15.42v-20.2c0-3.26-.07-5.57-.28-7.52-.08-.75.51-1.4,1.25-1.4h9.68c.75,0,1.33.66,1.25,1.42-.2,1.85-.27,4.05-.27,7.5v20.32c0,7.44,3.31,10.99,10.11,10.99s10.28-3.54,10.28-10.99v-20.32c0-3.6-.08-5.49-.29-7.49-.08-.76.5-1.43,1.25-1.43h9.71Z"/>
    <path class="cls-1" d="m332.35,462.41c.65-.07,1.24.42,1.36,1.12.25,1.5.65,2.43,1.35,3.44,1.4,1.9,3.84,2.97,6.82,2.97,4.49,0,7.17-2.15,7.17-5.69,0-1.96-.93-3.67-2.45-4.43-1.22-.63-2.68-1.07-8.74-2.59-5.36-1.26-7.22-2.02-9.38-3.67-3.67-2.78-5.65-7.02-5.65-12.14,0-9.74,7.22-15.87,18.7-15.87,7.4,0,13.05,2.47,16.19,7.21,1.23,1.76,1.92,3.39,2.56,6.04.2.81-.31,1.63-1.08,1.72l-9.82,1.16c-.62.07-1.18-.36-1.35-1-.88-3.29-3.2-4.92-7.2-4.92-3.55,0-5.95,2.32-5.95,5.23,0,1.77.87,3.1,2.74,4.05q1.16.57,8.04,2.09c4.43,1.01,7.22,2.09,9.44,3.6,4.19,2.85,6.29,7.08,6.29,12.9,0,4.74-1.4,8.79-4.08,11.63-3.38,3.54-8.5,5.38-15.32,5.38-4.95,0-9.84-1.14-12.99-3.1-2.91-1.77-5.07-4.49-6.29-8.09-.48-1.24-.76-2.44-1.07-4.42-.12-.78.39-1.52,1.12-1.6l9.59-1Z"/>
  </g>
</svg>