<?xml version="1.0" encoding="UTF-8"?>
<svg id="_レイヤー_1" data-name="レイヤー 1" xmlns="http://www.w3.org/2000/svg" viewBox="0 0 115.52 131.92">
  <defs>
    <style>
      .cls-1, .cls-2 {
        stroke-width: 0px;
      }

      .cls-2 {
        fill: #e54539;
      }
    </style>
  </defs>
  <g>
    <g>
      <polygon class="cls-1" points="12.12 43.59 12.12 14.85 40.87 14.85 40.87 20.85 18.13 20.85 18.13 43.59 12.12 43.59"/>
      <path class="cls-1" d="m38.87,16.85v2.01h-22.74v22.74h-2.01v-24.75h24.75m4-4H10.12v32.75h10.01v-22.74h22.74v-10.01h0Z"/>
    </g>
    <g>
      <polygon class="cls-1" points="98.31 43.59 98.31 20.85 75.57 20.85 75.57 14.85 104.31 14.85 104.31 43.59 98.31 43.59"/>
      <path class="cls-1" d="m102.31,16.85v24.75h-2.01v-22.74h-22.74v-2.01h24.75m4-4h-32.75v10.01h22.74v22.74h10.01V12.85h0Z"/>
    </g>
    <g>
      <polygon class="cls-1" points="12.12 99.08 12.12 70.34 18.13 70.34 18.13 93.08 40.87 93.08 40.87 99.08 12.12 99.08"/>
      <path class="cls-1" d="m16.13,72.34v22.74h22.74v2.01H14.12v-24.75h2.01m4-4h-10.01v32.75h32.75v-10.01h-22.74v-22.74h0Z"/>
    </g>
    <g>
      <polygon class="cls-1" points="75.57 99.08 75.57 93.08 98.31 93.08 98.31 70.34 104.31 70.34 104.31 99.08 75.57 99.08"/>
      <path class="cls-1" d="m102.31,72.34v24.75h-24.75v-2.01h22.74v-22.74h2.01m4-4h-10.01v22.74h-22.74v10.01h32.75v-32.75h0Z"/>
    </g>
    <circle class="cls-2" cx="57.88" cy="56.74" r="13.64"/>
    <path class="cls-1" d="m56.22,1.93v26.61c0,2.57,4,2.58,4,0V1.93c0-2.57-4-2.58-4,0h0Z"/>
    <path class="cls-1" d="m56.33,81.98v26.61c0,2.57,4,2.58,4,0v-26.61c0-2.57-4-2.58-4,0h0Z"/>
    <path class="cls-1" d="m28.54,54.97H1.93c-2.57,0-2.58,4,0,4h26.61c2.57,0,2.58-4,0-4h0Z"/>
    <path class="cls-1" d="m113.59,54.97h-26.61c-2.57,0-2.58,4,0,4h26.61c2.57,0,2.58-4,0-4h0Z"/>
  </g>
  <g>
    <path class="cls-1" d="m19.64,128.68c0,1.63.02,2.26.14,3.02h-3.79c.12-.76.16-1.46.16-2.97v-8.99c0-.93-.02-1.48-.09-2.1-.02-.23.16-.43.39-.42.53.02,1.06.03,2.13.03h5.1c1.28,0,1.9-.01,2.55-.07.22-.02.42.15.42.37v2.46c0,.22-.19.39-.41.37-.63-.06-1.32-.08-2.53-.08h-3.68c-.21,0-.38.17-.38.38v2.1c0,.21.17.38.38.38h2.94c1.13,0,1.78-.02,2.41-.08.22-.02.42.15.42.37v2.38c0,.22-.19.39-.42.37-.63-.06-1.31-.08-2.41-.08h-2.94c-.21,0-.38.17-.38.38v2.18Z"/>
    <path class="cls-1" d="m45.78,124.38c0,4.48-2.15,7.44-6.52,7.44s-6.46-2.94-6.46-7.44,2.06-7.31,6.48-7.31,6.5,2.86,6.5,7.31Zm-3,.02c0-2.75-1.33-4.41-3.51-4.41s-3.54,1.68-3.54,4.41,1.35,4.48,3.54,4.48,3.51-1.7,3.51-4.48Z"/>
    <path class="cls-1" d="m61.33,122.28c-.18.04-.35-.07-.4-.25-.36-1.3-1.19-1.94-2.48-1.94-1.98,0-3.13,1.59-3.13,4.33s1.2,4.35,3.21,4.35c.89,0,1.65-.38,2.12-1.05.23-.33.34-.61.43-1.09.03-.19.21-.31.4-.29l2.65.4c.2.03.34.24.29.44-.29,1.18-.64,1.91-1.25,2.65-1,1.18-2.57,1.81-4.53,1.81s-3.64-.63-4.79-1.83c-1.2-1.24-1.89-3.22-1.89-5.45s.69-4.13,1.97-5.42c1.12-1.11,2.75-1.73,4.65-1.73,2.09,0,3.72.73,4.78,2.17.45.59.72,1.13.92,1.9.05.2-.07.41-.27.45l-2.65.53Z"/>
    <path class="cls-1" d="m82.25,117.61c.2,0,.36.18.34.39-.06.54-.08,1.1-.08,2.04v5.52c0,3.66-2.16,5.73-5.96,5.73-1.96,0-3.55-.56-4.5-1.57-.91-.99-1.39-2.39-1.39-4.19v-5.49c0-.88-.02-1.51-.08-2.04-.02-.2.14-.38.34-.38h2.63c.2,0,.36.18.34.38-.05.5-.07,1.1-.07,2.04v5.52c0,2.02.9,2.98,2.74,2.98s2.79-.96,2.79-2.98v-5.52c0-.98-.02-1.49-.08-2.04-.02-.21.13-.39.34-.39h2.64Z"/>
    <path class="cls-1" d="m91.65,126.97c.18-.02.34.11.37.3.07.41.18.66.37.93.38.52,1.04.81,1.85.81,1.22,0,1.95-.58,1.95-1.55,0-.53-.25-1-.66-1.2-.33-.17-.73-.29-2.37-.7-1.46-.34-1.96-.55-2.55-1-1-.76-1.53-1.91-1.53-3.3,0-2.64,1.96-4.31,5.08-4.31,2.01,0,3.54.67,4.4,1.96.33.48.52.92.7,1.64.05.22-.08.44-.29.47l-2.67.31c-.17.02-.32-.1-.37-.27-.24-.89-.87-1.34-1.96-1.34-.96,0-1.62.63-1.62,1.42,0,.48.24.84.74,1.1q.32.15,2.18.57c1.2.27,1.96.57,2.56.98,1.14.77,1.71,1.92,1.71,3.5,0,1.29-.38,2.39-1.11,3.16-.92.96-2.31,1.46-4.16,1.46-1.34,0-2.67-.31-3.53-.84-.79-.48-1.38-1.22-1.71-2.2-.13-.34-.21-.66-.29-1.2-.03-.21.11-.41.3-.43l2.6-.27Z"/>
  </g>
</svg>